<svg xmlns="http://www.w3.org/2000/svg" width="24" height="24" viewBox="0 0 24 24" fill="none">
  <path d="M0.313782 7.88938L4.88952 10.7631C5.00031 10.8327 5.14708 10.786 5.19726 10.6652L5.89802 8.97805C5.94058 8.87557 5.89669 8.75762 5.79748 8.7079L4.70392 8.15979C4.54502 8.08015 4.54931 7.8519 4.71109 7.77829L11.9127 4.50126C11.9682 4.47601 12.0318 4.47593 12.0874 4.50103L19.3208 7.77005C19.4862 7.8448 19.4867 8.07949 19.3217 8.15502L17.9207 8.79615L18.6872 10.8962L23.6759 7.88775C23.8176 7.80232 23.8107 7.59462 23.6637 7.51876L12.097 1.55004C12.0361 1.51865 11.9639 1.51865 11.903 1.55004L0.329277 7.52239C0.183783 7.59747 0.175134 7.8023 0.313782 7.88938Z" fill="black" stroke="black" stroke-width="0.0528643"/>
  <path d="M11.6624 13.2142C9.04997 11.8876 7.71773 11.6778 4.97386 11.5482C4.91403 11.5454 4.86733 11.4931 4.87301 11.4335C5.08206 9.23701 6.08971 7.6302 7.1419 7.01179C8.19147 6.39491 9.99018 5.75071 11.841 5.75367C11.8994 5.75377 11.9461 5.80204 11.9451 5.86053L11.8178 13.1222C11.8164 13.2005 11.7322 13.2497 11.6624 13.2142Z" fill="black" stroke="black" stroke-width="0.0528643"/>
  <path d="M11.8652 22.4193L11.7868 16.2188C11.7862 16.1718 11.7701 16.1266 11.7413 16.0894C11.1001 15.2611 10.3082 13.6771 10.4115 12.8616" stroke="url(#paint0_linear_52_23726)" stroke-width="0.264322"/>
  <path d="M12.7686 15.0426C13.9172 14.1311 14.3107 13.7063 15.2264 12.4849M12.425 15.8772L12.6096 16.7029M12.8739 19.1618L12.6757 17.3176M12.8739 19.1618C14.7065 18.851 15.5983 19.0043 16.7334 20.4003M12.8739 19.1618C13.0765 19.4589 13.2527 19.6925 13.4372 19.8888M14.5127 20.6426C14.0419 20.4161 13.7292 20.1993 13.4372 19.8888M12.6757 17.3176L13.0854 17.3981M12.6757 17.3176L12.6096 16.7029M15.0149 17.8426L13.0854 17.3981M15.5435 18.058L16.5215 18.3003M16.0986 16.2541L17.0501 14.3157M13.0854 17.3981L15.6757 16.6041M13.7462 12.2426L15.0149 12.108M16.2043 11.9734L17.3409 11.9195M17.9488 11.5964C18.3934 11.4249 18.5452 11.2699 18.6628 10.6811C18.2788 10.2347 18.1048 10.0356 17.6581 9.81952M17.2087 9.49645L16.3101 8.25799M14.1955 8.55414L14.8695 8.33875M15.5435 8.12337L14.8695 8.33875M13.5083 7.50414L13.8255 8.25799M13.8255 7.18106C14.3226 7.1178 14.5894 7.16658 15.0149 7.38299M15.8343 7.66568L15.0149 7.38299M15.5435 6.61568C15.423 6.95498 15.2938 7.11762 15.0149 7.38299M13.5083 6.88491C13.7537 6.6167 13.7994 6.45414 13.8255 6.05029M13.1122 7.01952C12.7902 6.52129 12.5331 6.44229 12.1074 6.42722M12.0813 7.90799C12.583 7.89831 12.8506 8.03879 13.3497 8.55414M13.8255 9.36183C13.7876 9.71522 13.7665 9.91343 13.5876 10.2772M13.5876 10.2772C12.9154 11.0838 12.5845 11.2073 12.0281 11.2195M13.5876 10.2772C14.1382 10.9891 14.5736 11.2309 15.4911 11.4888L15.1475 9.92722L14.8695 8.33875M12.6096 16.7029C12.9302 15.5259 13.1638 14.8947 14.4598 14.2349C15.0998 14.0667 15.4586 13.9724 16.0986 13.8041C17.1565 13.2269 17.2766 12.8753 17.3938 12.2426M17.8963 12.3234C17.9577 14.0113 18.5637 13.8799 19.2968 13.9388M18.9797 16.6041C18.4649 16.4623 18.203 16.3117 17.7902 15.8772L17.3938 14.3695M17.6581 14.1003C18.2873 14.6254 18.6169 14.8268 19.2708 14.8272M17 18.5L17.8434 19.1618M18.3192 18.3003C17.9668 18.1082 17.7383 17.9443 17.3409 17.1426L17.2616 16.4426M17.2616 16.4426L16.3101 16.5234M17.2616 16.4426L15.4642 17.7618M9.3853 12.458C9.306 12.6195 10.1093 14.891 11.2087 16.0657M11.2087 16.0657L10.8916 19.2964M11.2087 16.0657C10.3138 15.6282 9.81447 15.4027 8.98848 15.3926M10.8916 19.2964L11.2087 22.4195C11.1298 21.4234 10.4601 20.6245 9.27923 19.8888M10.8916 19.2964L9.27923 19.8888M8.35412 16.5234C9.41308 16.63 9.99078 16.8585 10.9973 17.5195L8.64486 19.2964M7.27042 18.3811C7.71881 18.0226 7.9724 17.8296 8.53914 17.8964M8.53914 17.8964C8.51731 17.5816 8.42705 17.3474 8.16948 17.1426M8.53914 17.8964C8.81288 17.9603 8.95068 17.9507 9.14707 17.8426M7.27042 18.7041L8.64486 19.2964M8.64486 19.2964L8.96204 19.5926M7.05896 14.2349C7.54267 14.3516 7.87969 14.4841 8.16948 14.667M8.98848 15.3926C8.38914 15.5746 8.06061 15.5904 7.5083 15.3926M8.98848 15.3926C8.69734 15.0789 8.45659 14.8482 8.16948 14.667M6.58319 18.3003C6.13741 18.1676 5.90293 18.1423 5.55235 18.3003M7.56116 16.7388L7.15147 17.4253M6.84751 18.058L7.15147 17.4253M7.15147 17.4253L6.05456 16.9541C5.65461 17.0496 5.47154 17.0604 5.02411 16.9541L5.97526 15.8772L5.99595 15.7964M6.34531 14.5041C6.33633 15.0367 6.23698 15.3148 5.99595 15.7964M6.34531 13.6426C5.91072 12.7789 5.65884 12.272 4.91838 11.7041C4.82506 12.747 4.87481 13.4659 5.02412 14.667C5.35738 15.2885 5.43343 15.5044 5.99595 15.7964M9.27923 19.8888L8.96204 19.5926M15.6761 10.3849L17.3938 9.76568L17.6581 11.9195L12.1342 12.3503M8.16948 14.667C8.53441 13.6221 8.43568 13.0743 8.16948 12.108M8.96204 19.5926C8.0716 19.6566 7.83455 19.9555 7.56116 20.6426M13.9845 22.0426C13.4241 21.3319 13.4154 20.8186 13.4372 19.8888M15.3853 21.5041L14.751 20.8849L15.7554 19.5926" stroke="url(#paint1_linear_52_23726)" stroke-width="0.264322" stroke-linejoin="bevel"/>
  <path d="M12.1327 22.4194L12.2111 16.219C12.2117 16.1719 12.2281 16.1268 12.2562 16.089C12.8755 15.2582 13.1968 13.6211 13.375 12.6194" stroke="url(#paint2_linear_52_23726)" stroke-width="0.264322"/>
  <path d="M17.144 8.05768C18.2204 9.26517 18.8221 11.1277 19.0704 14.0028C19.0657 18.5441 16.0853 22.2498 12.0781 22.2498C8.05183 22.2498 4.74528 18.6289 4.74219 14.1062L4.74455 14.06C4.78941 13.1829 4.81576 12.6678 5.00358 11.8787C6.45756 11.9263 7.54745 12.0693 8.55026 12.3503C9.57963 12.6387 10.5288 13.0758 11.6957 13.7205C11.9276 13.8487 12.2211 13.6872 12.2247 13.4142L12.3244 6.03132C14.5605 6.28613 16.0961 6.88229 17.144 8.05768Z" fill="#D9D9D9" fill-opacity="0.25"/>
  <path d="M17.144 8.05768C18.2204 9.26517 18.8221 11.1277 19.0704 14.0028C19.0657 18.5441 16.0853 22.2498 12.0781 22.2498C8.05183 22.2498 4.74528 18.6289 4.74219 14.1062L4.74455 14.06C4.78941 13.1829 4.81576 12.6678 5.00358 11.8787C6.45756 11.9263 7.54745 12.0693 8.55026 12.3503C9.57963 12.6387 10.5288 13.0758 11.6957 13.7205C11.9276 13.8487 12.2211 13.6872 12.2247 13.4142L12.3244 6.03132C14.5605 6.28613 16.0961 6.88229 17.144 8.05768Z" stroke="black" stroke-width="0.5"/>
  <path d="M17.144 8.05768C18.2204 9.26517 18.8221 11.1277 19.0704 14.0028C19.0657 18.5441 16.0853 22.2498 12.0781 22.2498C8.05183 22.2498 4.74528 18.6289 4.74219 14.1062L4.74455 14.06C4.78941 13.1829 4.81576 12.6678 5.00358 11.8787C6.45756 11.9263 7.54745 12.0693 8.55026 12.3503C9.57963 12.6387 10.5288 13.0758 11.6957 13.7205C11.9276 13.8487 12.2211 13.6872 12.2247 13.4142L12.3244 6.03132C14.5605 6.28613 16.0961 6.88229 17.144 8.05768Z" stroke="url(#paint3_linear_52_23726)" stroke-opacity="0.8" stroke-width="0.5"/>
  <ellipse cx="13.5287" cy="12.3473" rx="0.528691" ry="0.538463" fill="#70EFFC"/>
  <ellipse cx="13.5287" cy="12.3473" rx="0.528691" ry="0.538463" fill="url(#paint4_linear_52_23726)"/>
  <ellipse cx="14.5287" cy="20.5973" rx="0.528691" ry="0.538463" fill="#70EFFC"/>
  <ellipse cx="14.5287" cy="20.5973" rx="0.528691" ry="0.538463" fill="url(#paint5_linear_52_23726)"/>
  <circle cx="15.25" cy="17.8088" r="0.5" fill="#70EFFC"/>
  <circle cx="15.25" cy="17.8088" r="0.5" fill="url(#paint6_linear_52_23726)"/>
  <ellipse cx="13.5287" cy="7.0973" rx="0.528691" ry="0.538463" fill="#70EFFC"/>
  <ellipse cx="13.5287" cy="7.0973" rx="0.528691" ry="0.538463" fill="url(#paint7_linear_52_23726)"/>
  <circle cx="15.875" cy="16.4338" r="0.625" fill="#70EFFC"/>
  <circle cx="15.875" cy="16.4338" r="0.625" fill="url(#paint8_linear_52_23726)"/>
  <circle cx="7.5" cy="15.3088" r="0.5" fill="#70EFFC"/>
  <circle cx="7.5" cy="15.3088" r="0.5" fill="url(#paint9_linear_52_23726)"/>
  <circle cx="9.375" cy="17.6838" r="0.625" fill="#70EFFC"/>
  <circle cx="9.375" cy="17.6838" r="0.625" fill="url(#paint10_linear_52_23726)"/>
  <ellipse cx="6.925" cy="18.2319" rx="0.675" ry="0.673079" fill="#70EFFC"/>
  <ellipse cx="6.925" cy="18.2319" rx="0.675" ry="0.673079" fill="url(#paint11_linear_52_23726)"/>
  <circle cx="7.875" cy="16.6838" r="0.625" fill="#70EFFC"/>
  <circle cx="7.875" cy="16.6838" r="0.625" fill="url(#paint12_linear_52_23726)"/>
  <ellipse cx="17.4109" cy="14.2319" rx="0.660864" ry="0.673079" fill="#70EFFC"/>
  <ellipse cx="17.4109" cy="14.2319" rx="0.660864" ry="0.673079" fill="url(#paint13_linear_52_23726)"/>
  <ellipse cx="15.6609" cy="10.4819" rx="0.660864" ry="0.673079" fill="#70EFFC"/>
  <ellipse cx="15.6609" cy="10.4819" rx="0.660864" ry="0.673079" fill="url(#paint14_linear_52_23726)"/>
  <ellipse cx="17.6609" cy="11.9819" rx="0.660864" ry="0.673079" fill="#70EFFC"/>
  <ellipse cx="17.6609" cy="11.9819" rx="0.660864" ry="0.673079" fill="url(#paint15_linear_52_23726)"/>
  <ellipse cx="15.9109" cy="8.18187" rx="0.660864" ry="0.673079" fill="#70EFFC"/>
  <ellipse cx="15.9109" cy="8.18187" rx="0.660864" ry="0.673079" fill="url(#paint16_linear_52_23726)"/>
  <ellipse cx="15.793" cy="12.1165" rx="0.793037" ry="0.807694" fill="#70EFFC"/>
  <ellipse cx="15.793" cy="12.1165" rx="0.793037" ry="0.807694" fill="url(#paint17_linear_52_23726)"/>
  <ellipse cx="13.793" cy="8.61653" rx="0.793037" ry="0.807694" fill="#70EFFC"/>
  <ellipse cx="13.793" cy="8.61653" rx="0.793037" ry="0.807694" fill="url(#paint18_linear_52_23726)"/>
  <circle cx="6.575" cy="14.1338" r="0.825" fill="#70EFFC"/>
  <circle cx="6.575" cy="14.1338" r="0.825" fill="url(#paint19_linear_52_23726)"/>
  <ellipse cx="16.6609" cy="18.4819" rx="0.660864" ry="0.673079" fill="#70EFFC"/>
  <ellipse cx="16.6609" cy="18.4819" rx="0.660864" ry="0.673079" fill="url(#paint20_linear_52_23726)"/>
  <ellipse cx="17.2787" cy="9.8473" rx="0.528691" ry="0.538463" fill="#70EFFC"/>
  <ellipse cx="17.2787" cy="9.8473" rx="0.528691" ry="0.538463" fill="url(#paint21_linear_52_23726)"/>
  <ellipse cx="2.93371" cy="12.35" rx="0.449339" ry="0.457692" fill="#70EFFC"/>
  <ellipse cx="2.93371" cy="12.35" rx="0.449339" ry="0.457692" fill="url(#paint22_linear_52_23726)"/>
  <path d="M3.30069 6.06946L3.58303 5.90304C3.62439 5.87866 3.6137 5.82164 3.56575 5.81907C3.3494 5.80746 2.92221 5.8452 2.68993 6.27612C2.6749 6.304 2.66797 6.33571 2.66797 6.36738V11.7328C2.66797 11.7912 2.71531 11.8385 2.7737 11.8385H3.09087C3.14927 11.8385 3.1966 11.7912 3.1966 11.7328V6.25163C3.1966 6.17676 3.23619 6.10747 3.30069 6.06946Z" fill="black"/>
  <path d="M3.30069 6.06946L3.58303 5.90304C3.62439 5.87866 3.6137 5.82164 3.56575 5.81907C3.3494 5.80746 2.92221 5.8452 2.68993 6.27612C2.6749 6.304 2.66797 6.33571 2.66797 6.36738V11.7328C2.66797 11.7912 2.71531 11.8385 2.7737 11.8385H3.09087C3.14927 11.8385 3.1966 11.7912 3.1966 11.7328V6.25163C3.1966 6.17676 3.23619 6.10747 3.30069 6.06946Z" fill="url(#paint23_linear_52_23726)" fill-opacity="0.8"/>
  <path d="M3.30069 6.06946L3.58303 5.90304C3.62439 5.87866 3.6137 5.82164 3.56575 5.81907C3.3494 5.80746 2.92221 5.8452 2.68993 6.27612C2.6749 6.304 2.66797 6.33571 2.66797 6.36738V11.7328C2.66797 11.7912 2.71531 11.8385 2.7737 11.8385H3.09087C3.14927 11.8385 3.1966 11.7912 3.1966 11.7328V6.25163C3.1966 6.17676 3.23619 6.10747 3.30069 6.06946Z" stroke="black" stroke-width="0.0528643" style="mix-blend-mode:overlay"/>
  <path d="M3.10759 12.8347H2.75734C2.70625 12.8347 2.66247 12.8712 2.65332 12.9215L1.82722 17.4603C1.80949 17.5577 1.86176 17.6544 1.95299 17.693L2.7983 18.05C2.8509 18.0722 2.91025 18.0722 2.96285 18.05L3.81156 17.6915C3.90123 17.6536 3.95347 17.5595 3.93809 17.4633L3.212 12.9237C3.20379 12.8725 3.15954 12.8347 3.10759 12.8347Z" fill="black"/>
  <path d="M3.10759 12.8347H2.75734C2.70625 12.8347 2.66247 12.8712 2.65332 12.9215L1.82722 17.4603C1.80949 17.5577 1.86176 17.6544 1.95299 17.693L2.7983 18.05C2.8509 18.0722 2.91025 18.0722 2.96285 18.05L3.81156 17.6915C3.90123 17.6536 3.95347 17.5595 3.93809 17.4633L3.212 12.9237C3.20379 12.8725 3.15954 12.8347 3.10759 12.8347Z" fill="url(#paint24_linear_52_23726)" fill-opacity="0.8"/>
  <path d="M3.10759 12.8347H2.75734C2.70625 12.8347 2.66247 12.8712 2.65332 12.9215L1.82722 17.4603C1.80949 17.5577 1.86176 17.6544 1.95299 17.693L2.7983 18.05C2.8509 18.0722 2.91025 18.0722 2.96285 18.05L3.81156 17.6915C3.90123 17.6536 3.95347 17.5595 3.93809 17.4633L3.212 12.9237C3.20379 12.8725 3.15954 12.8347 3.10759 12.8347Z" stroke="black" stroke-width="0.0528643" style="mix-blend-mode:overlay"/>
  <defs>
    <linearGradient id="paint0_linear_52_23726" x1="11.0935" y1="12.8616" x2="11.0935" y2="22.4462" gradientUnits="userSpaceOnUse">
      <stop stop-color="#72EAFB"/>
      <stop offset="0.421875" stop-color="#004964"/>
    </linearGradient>
    <linearGradient id="paint1_linear_52_23726" x1="11.9228" y1="22.4464" x2="12.0599" y2="5.59264" gradientUnits="userSpaceOnUse">
      <stop stop-color="#004964"/>
      <stop offset="1" stop-color="#72EAFB"/>
    </linearGradient>
    <linearGradient id="paint2_linear_52_23726" x1="12.6349" y1="12.6194" x2="12.6349" y2="22.4463" gradientUnits="userSpaceOnUse">
      <stop stop-color="#72EAFB"/>
      <stop offset="0.421875" stop-color="#004964"/>
    </linearGradient>
    <linearGradient id="paint3_linear_52_23726" x1="12.0871" y1="5.66825" x2="12.0463" y2="22.5001" gradientUnits="userSpaceOnUse">
      <stop stop-color="#72EAFB"/>
      <stop offset="1" stop-color="#386F83"/>
    </linearGradient>
    <linearGradient id="paint4_linear_52_23726" x1="13.5287" y1="11.8088" x2="13.5287" y2="12.8858" gradientUnits="userSpaceOnUse">
      <stop stop-color="#79F5FB"/>
      <stop offset="1" stop-color="#5DCAFA"/>
    </linearGradient>
    <linearGradient id="paint5_linear_52_23726" x1="14.5287" y1="20.0588" x2="14.5287" y2="21.1358" gradientUnits="userSpaceOnUse">
      <stop stop-color="#79F5FB"/>
      <stop offset="1" stop-color="#5DCAFA"/>
    </linearGradient>
    <linearGradient id="paint6_linear_52_23726" x1="15.25" y1="17.3088" x2="15.25" y2="18.3088" gradientUnits="userSpaceOnUse">
      <stop stop-color="#79F5FB"/>
      <stop offset="1" stop-color="#5DCAFA"/>
    </linearGradient>
    <linearGradient id="paint7_linear_52_23726" x1="13.5287" y1="6.55884" x2="13.5287" y2="7.63576" gradientUnits="userSpaceOnUse">
      <stop stop-color="#79F5FB"/>
      <stop offset="1" stop-color="#5DCAFA"/>
    </linearGradient>
    <linearGradient id="paint8_linear_52_23726" x1="15.875" y1="15.8088" x2="15.875" y2="17.0588" gradientUnits="userSpaceOnUse">
      <stop stop-color="#79F5FB"/>
      <stop offset="1" stop-color="#5DCAFA"/>
    </linearGradient>
    <linearGradient id="paint9_linear_52_23726" x1="7.5" y1="14.8088" x2="7.5" y2="15.8088" gradientUnits="userSpaceOnUse">
      <stop stop-color="#79F5FB"/>
      <stop offset="1" stop-color="#5DCAFA"/>
    </linearGradient>
    <linearGradient id="paint10_linear_52_23726" x1="9.375" y1="17.0588" x2="9.375" y2="18.3088" gradientUnits="userSpaceOnUse">
      <stop stop-color="#79F5FB"/>
      <stop offset="1" stop-color="#5DCAFA"/>
    </linearGradient>
    <linearGradient id="paint11_linear_52_23726" x1="6.925" y1="17.5588" x2="6.925" y2="18.905" gradientUnits="userSpaceOnUse">
      <stop stop-color="#79F5FB"/>
      <stop offset="1" stop-color="#5DCAFA"/>
    </linearGradient>
    <linearGradient id="paint12_linear_52_23726" x1="7.875" y1="16.0588" x2="7.875" y2="17.3088" gradientUnits="userSpaceOnUse">
      <stop stop-color="#79F5FB"/>
      <stop offset="1" stop-color="#5DCAFA"/>
    </linearGradient>
    <linearGradient id="paint13_linear_52_23726" x1="17.4109" y1="13.5588" x2="17.4109" y2="14.905" gradientUnits="userSpaceOnUse">
      <stop stop-color="#79F5FB"/>
      <stop offset="1" stop-color="#5DCAFA"/>
    </linearGradient>
    <linearGradient id="paint14_linear_52_23726" x1="15.6609" y1="9.80884" x2="15.6609" y2="11.155" gradientUnits="userSpaceOnUse">
      <stop stop-color="#79F5FB"/>
      <stop offset="1" stop-color="#5DCAFA"/>
    </linearGradient>
    <linearGradient id="paint15_linear_52_23726" x1="17.6609" y1="11.3088" x2="17.6609" y2="12.655" gradientUnits="userSpaceOnUse">
      <stop stop-color="#79F5FB"/>
      <stop offset="1" stop-color="#5DCAFA"/>
    </linearGradient>
    <linearGradient id="paint16_linear_52_23726" x1="15.9109" y1="7.50879" x2="15.9109" y2="8.85495" gradientUnits="userSpaceOnUse">
      <stop stop-color="#79F5FB"/>
      <stop offset="1" stop-color="#5DCAFA"/>
    </linearGradient>
    <linearGradient id="paint17_linear_52_23726" x1="15.793" y1="11.3088" x2="15.793" y2="12.9242" gradientUnits="userSpaceOnUse">
      <stop stop-color="#79F5FB"/>
      <stop offset="1" stop-color="#5DCAFA"/>
    </linearGradient>
    <linearGradient id="paint18_linear_52_23726" x1="13.793" y1="7.80884" x2="13.793" y2="9.42423" gradientUnits="userSpaceOnUse">
      <stop stop-color="#79F5FB"/>
      <stop offset="1" stop-color="#5DCAFA"/>
    </linearGradient>
    <linearGradient id="paint19_linear_52_23726" x1="6.575" y1="13.3088" x2="6.575" y2="14.9588" gradientUnits="userSpaceOnUse">
      <stop stop-color="#79F5FB"/>
      <stop offset="1" stop-color="#5DCAFA"/>
    </linearGradient>
    <linearGradient id="paint20_linear_52_23726" x1="16.6609" y1="17.8088" x2="16.6609" y2="19.155" gradientUnits="userSpaceOnUse">
      <stop stop-color="#79F5FB"/>
      <stop offset="1" stop-color="#5DCAFA"/>
    </linearGradient>
    <linearGradient id="paint21_linear_52_23726" x1="17.2787" y1="9.30884" x2="17.2787" y2="10.3858" gradientUnits="userSpaceOnUse">
      <stop stop-color="#79F5FB"/>
      <stop offset="1" stop-color="#5DCAFA"/>
    </linearGradient>
    <linearGradient id="paint22_linear_52_23726" x1="2.93371" y1="11.8923" x2="2.93371" y2="12.8077" gradientUnits="userSpaceOnUse">
      <stop stop-color="#79F5FB"/>
      <stop offset="1" stop-color="#5DCAFA"/>
    </linearGradient>
    <linearGradient id="paint23_linear_52_23726" x1="2.87942" y1="5.81738" x2="2.87942" y2="18.0847" gradientUnits="userSpaceOnUse">
      <stop stop-color="#004964"/>
      <stop offset="1" stop-color="#72EAFB"/>
    </linearGradient>
    <linearGradient id="paint24_linear_52_23726" x1="2.90701" y1="12.8079" x2="2.87958" y2="18.0847" gradientUnits="userSpaceOnUse">
      <stop stop-color="#004964"/>
      <stop offset="1" stop-color="#72EAFB"/>
    </linearGradient>
  </defs>
</svg>